<?xml version="1.0" standalone="no"?>
<!DOCTYPE svg PUBLIC "-//W3C//DTD SVG 20010904//EN"
 "http://www.w3.org/TR/2001/REC-SVG-20010904/DTD/svg10.dtd">
<svg version="1.0" xmlns="http://www.w3.org/2000/svg"
 width="432.000000pt" height="87.000000pt" viewBox="0 0 432.000000 87.000000"
 preserveAspectRatio="xMidYMid meet">

<g transform="translate(0.000000,87.000000) scale(0.100000,-0.100000)"
fill="#000000" stroke="none">
<path d="M0 793 l0 -77 75 74 c41 41 75 76 75 77 0 2 -34 3 -75 3 l-75 0 0
-77z"/>
<path d="M255 717 l-160 -93 -2 -129 c-1 -129 5 -155 38 -155 7 0 10 -3 6 -6
-8 -8 18 -34 34 -34 7 0 10 -3 6 -6 -8 -8 18 -34 34 -34 7 0 10 -3 6 -6 -8 -8
18 -34 34 -34 7 0 10 -3 6 -6 -8 -8 18 -34 34 -34 7 0 10 -3 6 -6 -8 -8 18
-34 34 -34 7 0 10 -3 6 -6 -8 -8 18 -34 34 -34 7 0 10 -3 6 -6 -8 -8 18 -34
33 -34 6 0 9 -4 5 -9 -3 -5 4 -12 14 -16 14 -4 69 22 183 87 l163 94 0 203 0
204 -160 93 c-88 51 -169 93 -180 94 -11 0 -92 -42 -180 -93z m223 -145 c39
40 43 41 58 26 16 -15 14 -20 -27 -67 -64 -74 -79 -75 -144 -11 -53 52 -53 53
-37 76 l17 23 45 -45 45 -44 43 42z m-98 -155 c0 -10 -23 -43 -52 -73 l-52
-55 -20 21 -20 20 44 45 44 45 -42 43 c-40 40 -41 44 -25 60 16 16 20 14 70
-35 29 -29 53 -61 53 -71z m208 46 l-42 -43 42 -43 43 -43 -21 -19 c-20 -18
-21 -18 -66 26 -73 71 -73 71 -8 139 55 57 58 59 76 43 18 -16 17 -18 -24 -60z
m-90 -148 c54 -51 56 -55 40 -72 -17 -16 -20 -15 -56 20 -21 20 -42 37 -47 37
-5 0 -28 -18 -50 -40 l-41 -41 -19 22 c-19 21 -19 21 37 75 31 30 62 54 68 54
6 0 37 -25 68 -55z"/>
<path d="M1185 688 c-17 -46 -85 -254 -85 -260 0 -4 18 -8 39 -8 33 0 40 4 43
23 3 19 10 22 55 25 47 3 52 1 55 -20 2 -19 10 -24 41 -26 21 -2 37 1 37 7 0
6 -19 70 -42 141 l-42 130 -48 0 c-30 0 -50 -5 -53 -12z m70 -96 c7 -28 10
-53 7 -56 -12 -13 -52 -5 -52 9 0 21 23 105 28 101 2 -2 9 -27 17 -54z"/>
<path d="M1450 560 l0 -140 37 0 36 0 -6 103 -7 102 53 -100 54 -100 51 -3 52
-3 0 140 0 141 -35 0 -35 0 0 -97 -1 -98 -50 98 -51 97 -49 0 -49 0 0 -140z"/>
<path d="M1820 561 l0 -141 58 1 c116 1 172 46 172 140 0 98 -36 130 -152 137
l-78 5 0 -142z m144 57 c19 -26 21 -71 5 -101 -15 -28 -28 -37 -56 -37 -22 0
-23 4 -23 80 l0 80 29 0 c20 0 35 -8 45 -22z"/>
<path d="M2159 573 c-23 -71 -44 -134 -47 -140 -3 -9 8 -13 37 -13 35 0 41 3
47 25 6 22 11 25 55 25 44 0 49 -3 55 -25 5 -21 12 -25 46 -25 28 0 39 4 36
13 -3 6 -24 69 -47 140 l-43 127 -48 0 -48 0 -43 -127z m104 38 c3 -16 9 -40
13 -55 6 -24 4 -26 -26 -26 -30 0 -32 2 -26 26 4 15 10 39 13 55 7 37 19 37
26 0z"/>
<path d="M2493 688 c-30 -14 -46 -58 -34 -89 10 -29 28 -45 74 -68 17 -9 33
-24 35 -33 3 -15 -4 -18 -38 -18 -23 0 -50 5 -61 10 -17 10 -19 7 -19 -24 0
-32 3 -36 36 -42 51 -9 114 1 136 24 20 19 27 79 13 102 -3 5 -29 22 -56 35
-71 36 -64 71 11 54 40 -9 37 -11 45 22 5 22 3 27 -17 33 -35 9 -100 6 -125
-6z"/>
<path d="M2730 560 l0 -140 85 0 85 0 0 30 c0 29 -1 30 -51 30 -49 0 -50 1
-47 28 3 24 7 27 46 30 37 3 42 6 42 27 0 21 -5 24 -42 27 -36 2 -44 7 -46 26
-3 20 0 22 47 22 50 0 51 1 51 30 l0 30 -85 0 -85 0 0 -140z"/>
<path d="M3055 691 c-45 -20 -69 -59 -73 -120 -9 -121 65 -173 207 -145 l31 7
0 73 0 74 -60 0 c-57 0 -60 -1 -60 -25 0 -20 5 -25 25 -25 20 0 25 -5 25 -25
0 -22 -4 -25 -34 -25 -18 0 -39 6 -45 13 -19 23 -24 75 -11 107 14 33 41 44
94 38 29 -3 37 0 46 20 6 14 8 27 5 30 -10 10 -129 12 -150 3z"/>
<path d="M3320 591 c0 -102 2 -112 24 -138 22 -25 30 -28 91 -28 61 0 69 3 91
28 22 26 24 36 24 138 l0 109 -35 0 -35 0 0 -98 c0 -103 -7 -122 -45 -122 -38
0 -45 19 -45 122 l0 98 -35 0 -35 0 0 -109z"/>
<path d="M3660 560 l0 -140 35 0 35 0 0 50 c0 65 17 65 52 0 26 -47 30 -50 69
-50 44 0 44 -3 -3 67 -33 50 -33 48 -8 80 23 29 25 51 9 87 -15 32 -56 46
-130 46 l-59 0 0 -140z m123 68 c7 -21 -12 -48 -33 -48 -16 0 -20 7 -20 30 0
25 4 30 24 30 13 0 26 -6 29 -12z"/>
<path d="M4008 683 c-31 -19 -58 -78 -58 -124 0 -39 22 -89 49 -113 30 -27
118 -33 160 -11 80 41 82 208 2 249 -40 21 -119 20 -153 -1z m120 -55 c15 -15
16 -102 2 -129 -13 -24 -57 -25 -82 -2 -20 18 -25 91 -8 124 12 22 68 27 88 7z"/>
<path d="M2151 223 c1 -32 4 -46 6 -30 2 15 11 27 18 27 8 0 21 -12 29 -27 18
-33 21 -25 4 12 -6 14 -19 25 -30 25 -11 0 -18 7 -18 20 0 28 38 26 50 -2 10
-23 10 -23 7 2 -2 20 -8 26 -34 28 l-33 3 1 -58z"/>
<path d="M2607 273 c-15 -14 -5 -32 30 -53 23 -13 32 -16 24 -6 -7 8 -21 18
-32 21 -28 9 -23 33 9 38 l27 4 -26 2 c-14 0 -29 -2 -32 -6z"/>
<path d="M2349 265 c-3 -5 -4 -29 -1 -52 3 -32 9 -43 21 -43 11 0 12 3 4 8 -6
4 -13 28 -15 52 -2 25 -6 41 -9 35z"/>
<path d="M2254 210 c1 -26 6 -35 19 -36 11 -1 12 0 3 3 -8 2 -17 19 -19 36 -4
31 -4 31 -3 -3z"/>
<path d="M2303 215 c0 -22 2 -30 4 -17 2 12 2 30 0 40 -3 9 -5 -1 -4 -23z"/>
<path d="M2446 236 c4 -11 0 -16 -14 -16 -24 0 -43 -22 -33 -38 4 -7 19 -11
34 -10 23 2 27 7 27 35 0 17 -4 35 -10 38 -6 3 -7 -1 -4 -9z m4 -35 c0 -6 -5
-13 -10 -16 -15 -9 -43 3 -35 15 8 13 45 13 45 1z"/>
<path d="M2485 240 c-3 -5 6 -17 20 -26 33 -21 32 -34 -2 -35 -26 -2 -26 -2
-4 -6 38 -8 50 15 21 39 -14 11 -24 25 -22 29 3 12 -5 11 -13 -1z"/>
<path d="M2697 243 c-4 -3 -7 -19 -7 -34 0 -27 16 -40 48 -38 10 1 7 4 -7 8
-34 9 -39 31 -7 31 26 0 36 22 16 35 -6 3 -7 -1 -4 -9 4 -12 0 -16 -16 -16
-16 0 -20 4 -16 15 6 16 3 19 -7 8z"/>
<path d="M2820 229 c0 -16 -5 -20 -18 -17 -10 3 -19 0 -19 -6 0 -6 -3 -22 -5
-36 -3 -14 -3 -19 -1 -12 7 19 51 15 56 -5 4 -14 5 -12 6 5 1 17 -4 22 -24 22
-30 0 -33 16 -5 23 17 4 31 47 15 47 -3 0 -5 -10 -5 -21z"/>
<path d="M2862 225 c0 -16 2 -22 5 -12 2 9 2 23 0 30 -3 6 -5 -1 -5 -18z"/>
<path d="M2918 218 c-2 -27 -7 -33 -25 -32 -12 0 -20 -3 -17 -8 3 -4 16 -7 29
-6 22 2 25 7 25 40 0 47 -8 50 -12 6z"/>
<path d="M2961 206 c2 -34 3 -36 6 -11 3 17 9 35 14 41 5 7 3 11 -6 11 -11 0
-15 -11 -14 -41z"/>
<path d="M3066 236 c3 -8 -2 -16 -13 -19 -17 -5 -17 -5 0 -6 10 0 17 -7 15
-13 -7 -19 -36 -21 -41 -3 -4 12 -5 11 -3 -2 1 -12 10 -18 29 -19 25 -1 27 2
27 37 0 22 -4 39 -10 39 -5 0 -7 -6 -4 -14z"/>
<path d="M3128 214 c12 -9 22 -20 22 -25 0 -4 -10 -10 -22 -12 -20 -5 -20 -5
2 -4 35 3 37 31 3 45 -28 12 -28 12 -5 -4z"/>
<path d="M1338 213 c133 -2 351 -2 485 0 133 1 24 2 -243 2 -267 0 -376 -1
-242 -2z"/>
<path d="M3508 213 c134 -2 350 -2 480 0 130 1 21 2 -243 2 -264 0 -371 -1
-237 -2z"/>
<path d="M2625 180 l-30 -8 27 -1 c15 0 30 4 33 9 3 6 5 9 3 9 -2 -1 -16 -5
-33 -9z"/>
</g>
</svg>
